<?xml version="1.0" encoding="UTF-8" standalone="no"?><!-- Generator: Gravit.io --><svg xmlns="http://www.w3.org/2000/svg" xmlns:xlink="http://www.w3.org/1999/xlink" style="isolation:isolate" viewBox="0 0 512 512" width="512pt" height="512pt"><defs><clipPath id="_clipPath_YePSOR79tY63DgAfkPW8DVkF3Vxs8jeH"><rect width="512" height="512"/></clipPath></defs><g clip-path="url(#_clipPath_YePSOR79tY63DgAfkPW8DVkF3Vxs8jeH)"><rect width="512" height="512" style="fill:rgb(45,52,54)" fill-opacity="0"/><g><g><g><path d=" M 220.903 97.469 L 199.822 97.469 C 197.472 97.469 195.567 99.374 195.567 101.724 L 195.567 122.805 C 195.567 125.155 197.472 127.06 199.822 127.06 L 220.903 127.06 C 223.254 127.06 225.159 125.155 225.159 122.805 L 225.159 101.724 C 225.159 99.374 223.254 97.469 220.903 97.469 Z " fill="rgb(240,80,81)"/></g><g><path d=" M 126.41 164.279 L 105.329 164.279 C 102.979 164.279 101.074 166.184 101.074 168.534 L 101.074 189.615 C 101.074 191.965 102.979 193.87 105.329 193.87 L 126.41 193.87 C 128.76 193.87 130.665 191.965 130.665 189.615 L 130.665 168.534 C 130.665 166.184 128.76 164.279 126.41 164.279 Z " fill="rgb(240,80,81)"/></g><g><path d=" M 143.046 72.312 L 115.193 72.312 C 112.089 72.312 109.571 74.829 109.571 77.934 L 109.571 105.788 C 109.571 108.893 112.088 111.41 115.193 111.41 L 143.046 111.41 C 146.151 111.41 148.669 108.893 148.669 105.788 L 148.669 77.934 C 148.668 74.829 146.151 72.312 143.046 72.312 Z " fill="rgb(240,80,81)"/></g></g><g><path d=" M 123.094 315.053 L 230.69 189.669 C 237.522 181.708 250.57 186.539 250.57 197.03 L 250.57 226.54 C 250.57 234.581 247.692 242.357 242.455 248.458 L 185.311 315.053 L 242.455 381.642 C 247.692 387.745 250.571 395.52 250.571 403.562 L 250.571 433.069 C 250.571 443.559 237.523 448.39 230.691 440.429 L 123.094 315.053 Z " fill="rgb(240,80,81)"/></g><g><path d=" M 410.926 196.954 L 303.33 71.571 C 296.498 63.61 283.45 68.441 283.45 78.932 L 283.45 108.442 C 283.45 116.483 286.328 124.258 291.565 130.36 L 348.709 196.954 L 291.565 263.543 C 286.328 269.646 283.449 277.422 283.449 285.463 L 283.449 314.97 C 283.449 325.46 296.498 330.292 303.329 322.331 L 410.926 196.954 Z " fill="rgb(240,80,81)"/></g></g></g></svg>